<svg xmlns="http://www.w3.org/2000/svg" height="512pt" version="1.1" viewBox="0 0 512 512" width="512pt">
<g id="surface1">
<path d="M 512 256 C 512 324.378906 485.371094 388.671875 437.019531 437.019531 C 388.671875 485.371094 324.378906 512 256 512 C 187.621094 512 123.328125 485.371094 74.980469 437.019531 C 26.628906 388.671875 0 324.378906 0 256 C 0 187.621094 26.628906 123.328125 74.980469 74.980469 C 123.328125 26.628906 187.621094 0 256 0 C 324.378906 0 388.671875 26.628906 437.019531 74.980469 C 485.371094 123.328125 512 187.621094 512 256 Z M 512 256 " style=" stroke:none;fill-rule:nonzero;fill:rgb(100%,66.666667%,12.54902%);fill-opacity:1;" />
<path d="M 512 256 C 512 324.378906 485.371094 388.671875 437.019531 437.019531 C 388.671875 485.371094 324.378906 512 256 512 L 256 0 C 324.378906 0 388.671875 26.628906 437.019531 74.980469 C 485.371094 123.328125 512 187.621094 512 256 Z M 512 256 " style=" stroke:none;fill-rule:nonzero;fill:rgb(100%,53.72549%,0%);fill-opacity:1;" />
<path d="M 458 256 C 458 278.53125 454.289062 300.210938 447.449219 320.46875 C 443.941406 330.871094 439.601562 340.898438 434.511719 350.46875 C 400.558594 414.378906 333.269531 458 256 458 C 178.730469 458 111.441406 414.378906 77.488281 350.46875 C 72.398438 340.898438 68.058594 330.871094 64.550781 320.46875 C 57.710938 300.210938 54 278.53125 54 256 C 54 144.621094 144.621094 54 256 54 C 367.378906 54 458 144.621094 458 256 Z M 458 256 " style=" stroke:none;fill-rule:nonzero;fill:rgb(100%,92.54902%,59.215686%);fill-opacity:1;" />
<path d="M 458 256 C 458 367.378906 367.378906 458 256 458 L 256 54 C 367.378906 54 458 144.621094 458 256 Z M 458 256 " style=" stroke:none;fill-rule:nonzero;fill:rgb(100%,85.882353%,17.647059%);fill-opacity:1;" />
<path d="M 447.449219 320.46875 C 447.070312 321.601562 446.679688 322.730469 446.269531 323.851562 C 446.148438 324.210938 446.011719 324.578125 445.878906 324.941406 C 445.828125 325.089844 445.769531 325.238281 445.71875 325.378906 C 445.378906 326.320312 445.019531 327.261719 444.660156 328.199219 C 444.359375 329 444.050781 329.789062 443.71875 330.578125 C 443.5 331.148438 443.28125 331.71875 443.039062 332.28125 C 442.941406 332.550781 442.828125 332.808594 442.710938 333.078125 C 442.339844 333.988281 441.960938 334.890625 441.570312 335.78125 C 441.101562 336.878906 440.621094 337.96875 440.128906 339.050781 C 439.988281 339.351562 439.859375 339.648438 439.71875 339.941406 C 439.300781 340.859375 438.871094 341.78125 438.441406 342.691406 C 438.308594 342.960938 438.179688 343.230469 438.050781 343.5 C 437.5 344.628906 436.949219 345.75 436.378906 346.859375 C 435.769531 348.070312 435.148438 349.269531 434.511719 350.46875 L 329.21875 350.46875 L 329.21875 235.171875 L 256 321.460938 L 255.988281 321.46875 L 182.761719 235.171875 L 182.761719 350.46875 L 77.488281 350.46875 C 72.398438 340.898438 68.058594 330.871094 64.550781 320.46875 L 152.761719 320.46875 L 152.761719 153.449219 L 255.988281 275.109375 L 256 275.101562 L 359.21875 153.449219 L 359.21875 320.46875 Z M 447.449219 320.46875 " style=" stroke:none;fill-rule:nonzero;fill:rgb(0%,86.666667%,75.686275%);fill-opacity:1;" />
<path d="M 447.449219 320.46875 C 447.070312 321.601562 446.679688 322.730469 446.269531 323.851562 C 446.148438 324.210938 446.011719 324.578125 445.878906 324.941406 C 445.828125 325.089844 445.769531 325.238281 445.71875 325.378906 C 445.378906 326.320312 445.019531 327.261719 444.660156 328.199219 C 444.359375 329 444.050781 329.789062 443.71875 330.578125 C 443.5 331.148438 443.28125 331.71875 443.039062 332.28125 C 442.941406 332.550781 442.828125 332.808594 442.710938 333.078125 C 442.339844 333.988281 441.960938 334.890625 441.570312 335.78125 C 441.101562 336.878906 440.621094 337.96875 440.128906 339.050781 C 439.988281 339.351562 439.859375 339.648438 439.71875 339.941406 C 439.300781 340.859375 438.871094 341.78125 438.441406 342.691406 C 438.308594 342.960938 438.179688 343.230469 438.050781 343.5 C 437.5 344.628906 436.949219 345.75 436.378906 346.859375 C 435.769531 348.070312 435.148438 349.269531 434.511719 350.46875 L 329.21875 350.46875 L 329.21875 235.171875 L 256 321.460938 L 256 275.101562 L 359.21875 153.449219 L 359.21875 320.46875 Z M 447.449219 320.46875 " style=" stroke:none;fill-rule:nonzero;fill:rgb(0%,67.058824%,58.039216%);fill-opacity:1;" />
</g>
</svg>